<svg width="429" height="85.8" viewBox="0 0 389.6551724137931 77.93103448275862"
  class="looka-1j8o68f">
  <defs id="SvgjsDefs1331">
    <linearGradient id="SvgjsLinearGradient1336">
      <stop id="SvgjsStop1337" stop-color="#b98947" offset="0"></stop>
      <stop id="SvgjsStop1338" stop-color="#faf0a1" offset="1"></stop>
    </linearGradient>
  </defs>
  <g id="SvgjsG1332" featurekey="v37d4h-0"
    transform="matrix(2.413793103448276,0,0,2.413793103448276,12.758620689655173,12.758620689655173)"
    fill="url(#SvgjsLinearGradient1336)">
    <g xmlns="http://www.w3.org/2000/svg" xmlns:sketch="http://www.bohemiancoding.com/sketch/ns"
      stroke-width="1" fill-rule="evenodd" sketch:type="MSPage">
      <g sketch:type="MSArtboardGroup" transform="translate(-405.000000, -135.000000)">
        <path
          d="M408,138 L433,138 L433,161 L408,161 L408,138 Z M409,139 L432,139 L432,142 L409,142 L409,139 Z M409,143 L432,143 L432,160 L409,160 L409,143 Z M410,140 L411,140 L411,141 L410,141 L410,140 Z M412,140 L413,140 L413,141 L412,141 L412,140 Z M414,140 L415,140 L415,141 L414,141 L414,140 Z M418.001325,148.427523 L418.708432,149.13463 L417.294218,150.548843 L418.708432,151.963057 L418.001325,152.670164 L415.880005,150.548843 L418.001325,148.427523 Z M423.001325,148.427523 L422.294218,149.13463 L423.708432,150.548843 L422.294218,151.963057 L423.001325,152.670164 L425.122646,150.548843 L423.001325,148.427523 Z M420.438248,148 L421.423056,148.173648 L420.554815,153.097687 L419.570007,152.924039 L420.438248,148 Z"
          sketch:type="MSShapeGroup" stroke="none" fill="url(#SvgjsLinearGradient1336)"></path>
      </g>
    </g>
  </g>
  <g id="SvgjsG1333" featurekey="UxBHKT-0"
    transform="matrix(1.9502771618725432,0,0,1.9502771618725432,98.75182241180936,23.98971973534036)"
    fill="#ffffff">
    <path
      d="M4.88 20 l-3 0 l0 -8.26 l-1.24 0 l0 -2.56 l1.24 0 q0.08 -2.14 1.22 -3.26 t3.16 -1.12 q0.6 0 1.32 0.18 l-0.16 2.42 q-0.38 -0.12 -0.82 -0.12 q-1.08 0 -1.4 0.54 t-0.32 1.36 l1.98 0 l0 2.56 l-1.98 0 l0 8.26 z M17.32 18.9 q-0.38 0.52 -1.31 0.93 t-2.03 0.41 q-1.7 0 -2.95 -0.76 t-1.91 -2.07 t-0.66 -2.91 t0.66 -2.91 t1.91 -2.07 t2.95 -0.76 q1.14 0 2.01 0.39 t1.33 0.99 l0 -1.14 l2.96 0 l0 11 l-2.96 0 l0 -1.1 z M16.619999999999997 12.25 q-0.82 -0.87 -2.2 -0.87 q-1.4 0 -2.21 0.87 t-0.81 2.25 q0 1.34 0.83 2.22 t2.19 0.88 q1.4 0 2.21 -0.83 t0.81 -2.27 q0 -1.38 -0.82 -2.25 z M26.04 7.369999999999999 q-0.48 0.47 -1.16 0.47 q-0.7 0 -1.19 -0.47 t-0.49 -1.15 q0 -0.66 0.49 -1.13 t1.19 -0.47 q0.68 0 1.16 0.47 t0.48 1.13 q0 0.68 -0.48 1.15 z M23.38 9.02 l3 0 l0 10.98 l-3 0 l0 -10.98 z M28.68 11.62 l0 -2.58 l10.46 0 l-6 8.36 l5.38 0 l0 2.6 l-10.66 0 l5.98 -8.38 l-5.16 0 z M63.07 10.04 q1.13 1.24 1.13 3.46 l0 6.5 l-3.02 0 l0 -6.5 q0 -1.18 -0.59 -1.7 t-1.55 -0.52 q-0.8 0 -1.44 0.6 t-0.66 2 l0 6.12 l-3.02 0 l0 -6.5 q0 -1.18 -0.59 -1.7 t-1.53 -0.52 q-0.86 0 -1.49 0.64 t-0.63 2.26 l-0.02 5.82 l-2.98 0 l0 -11 l2.98 0 l0 1 q0.58 -0.52 1.4 -0.86 t1.5 -0.34 q2.32 0 3.54 1.5 q0.62 -0.7 1.54 -1.1 t2 -0.4 q2.3 0 3.43 1.24 z M67.28 15.54 l0 -6.5 l3.02 0 l0 6.5 q0 1.18 0.59 1.69 t1.55 0.51 q0.84 0 1.5 -0.65 t0.6 -2.23 l0 -5.82 l3 0 l0 10.96 l-3 0 l0 -0.94 q-0.54 0.56 -1.31 0.87 t-1.63 0.31 q-4.32 0 -4.32 -4.7 z M88.8 18.9 q-0.38 0.52 -1.31 0.93 t-2.03 0.41 q-1.7 0 -2.95 -0.76 t-1.91 -2.07 t-0.66 -2.91 t0.66 -2.91 t1.91 -2.07 t2.95 -0.76 q1.14 0 2.01 0.39 t1.33 0.99 l0 -1.14 l2.96 0 l0 11 l-2.96 0 l0 -1.1 z M88.1 12.25 q-0.82 -0.87 -2.2 -0.87 q-1.4 0 -2.21 0.87 t-0.81 2.25 q0 1.34 0.83 2.22 t2.19 0.88 q1.4 0 2.21 -0.83 t0.81 -2.27 q0 -1.38 -0.82 -2.25 z M94.06 11.62 l0 -2.58 l10.46 0 l-6 8.36 l5.38 0 l0 2.6 l-10.66 0 l5.98 -8.38 l-5.16 0 z M105.38 11.62 l0 -2.58 l10.46 0 l-6 8.36 l5.38 0 l0 2.6 l-10.66 0 l5.98 -8.38 l-5.16 0 z M125.69999999999999 18.9 q-0.38 0.52 -1.31 0.93 t-2.03 0.41 q-1.7 0 -2.95 -0.76 t-1.91 -2.07 t-0.66 -2.91 t0.66 -2.91 t1.91 -2.07 t2.95 -0.76 q1.14 0 2.01 0.39 t1.33 0.99 l0 -1.14 l2.96 0 l0 11 l-2.96 0 l0 -1.1 z M124.99999999999999 12.25 q-0.82 -0.87 -2.2 -0.87 q-1.4 0 -2.21 0.87 t-0.81 2.25 q0 1.34 0.83 2.22 t2.19 0.88 q1.4 0 2.21 -0.83 t0.81 -2.27 q0 -1.38 -0.82 -2.25 z M148.02999999999997 10.04 q1.13 1.24 1.13 3.46 l0 6.5 l-3.02 0 l0 -6.5 q0 -1.18 -0.59 -1.7 t-1.55 -0.52 q-0.8 0 -1.44 0.6 t-0.66 2 l0 6.12 l-3.02 0 l0 -6.5 q0 -1.18 -0.59 -1.7 t-1.53 -0.52 q-0.86 0 -1.49 0.64 t-0.63 2.26 l-0.02 5.82 l-2.98 0 l0 -11 l2.98 0 l0 1 q0.58 -0.52 1.4 -0.86 t1.5 -0.34 q2.32 0 3.54 1.5 q0.62 -0.7 1.54 -1.1 t2 -0.4 q2.3 0 3.43 1.24 z"></path>
  </g>
</svg>